<svg width="64" height="57" viewBox="0 0 64 57" fill="none" xmlns="http://www.w3.org/2000/svg">
<path d="M63.9481 5.2908C63.8222 4.90567 63.4894 4.62416 63.0873 4.56541L59.2665 4.00965L57.5566 0.547227C57.1982 -0.182409 56.0025 -0.182409 55.6441 0.547227L53.9342 4.00965L50.1132 4.56554C49.7111 4.62416 49.3784 4.90479 49.2514 5.29092C49.1266 5.67706 49.23 6.10156 49.5212 6.38432L52.2872 9.07986L51.6344 12.8858C51.5661 13.2858 51.7304 13.6901 52.0579 13.9291C52.3897 14.1702 52.8227 14.1999 53.1822 14.0101L56.5998 12.2127L60.0175 14.0101C60.1733 14.0922 60.345 14.1327 60.5146 14.1327C60.7354 14.1327 60.9563 14.0644 61.1419 13.9289C61.4704 13.6901 61.6347 13.2857 61.5654 12.8857L60.9127 9.07973L63.6786 6.38419C63.9683 6.10044 64.073 5.67693 63.9481 5.2908ZM59.0223 7.94471C58.7716 8.18897 58.6564 8.5431 58.7161 8.88873L59.098 11.117L57.097 10.0652C56.9412 9.98312 56.7706 9.94262 56.5998 9.94262C56.4292 9.94262 56.2596 9.98312 56.1027 10.0652L54.1016 11.117L54.4834 8.88873C54.5432 8.5431 54.4279 8.19009 54.1773 7.94471L52.557 6.36607L54.7949 6.04069C55.1427 5.99056 55.4425 5.77193 55.5982 5.45718L56.5987 3.43052L57.5992 5.45718C57.755 5.77181 58.0547 5.99056 58.4025 6.04069L60.6404 6.36607L59.0223 7.94471Z" fill="#4D5AE5"/>
<path d="M52.2669 37.2871H50.1335V39.4205H52.2669V37.2871Z" fill="#4D5AE5"/>
<path d="M52.2669 41.5539H50.1335V43.6873H52.2669V41.5539Z" fill="#4D5AE5"/>
<path d="M54.4004 39.4205L52.2669 39.4205V41.5539L54.4004 41.5539V39.4205Z" fill="#4D5AE5"/>
<path d="M50.1335 39.4205L48.0002 39.4205V41.5539L50.1335 41.5539V39.4205Z" fill="#4D5AE5"/>
<path d="M44.8001 49.0206H42.6667V51.154H44.8001V49.0206Z" fill="#4D5AE5"/>
<path d="M44.8001 53.2873H42.6667V55.4207H44.8001V53.2873Z" fill="#4D5AE5"/>
<path d="M46.9336 51.1541L44.8001 51.154V53.2873L46.9336 53.2875V51.1541Z" fill="#4D5AE5"/>
<path d="M42.6667 51.154L40.5333 51.1541V53.2875L42.6667 53.2873V51.154Z" fill="#4D5AE5"/>
<path d="M32 44.754H29.8666V46.8874H32V44.754Z" fill="#4D5AE5"/>
<path d="M32 49.0206H29.8666V51.154H32V49.0206Z" fill="#4D5AE5"/>
<path d="M34.1334 46.8872L32 46.8874V49.0206L34.1334 49.0206V46.8872Z" fill="#4D5AE5"/>
<path d="M29.8666 46.8874L27.7332 46.8872V49.0206L29.8666 49.0206V46.8874Z" fill="#4D5AE5"/>
<path d="M11.733 8.48663H9.59961V10.62H11.733V8.48663Z" fill="#4D5AE5"/>
<path d="M11.733 12.7534H9.59961V14.8868H11.733V12.7534Z" fill="#4D5AE5"/>
<path d="M13.8663 10.6201L11.733 10.62V12.7534L13.8663 12.7535V10.6201Z" fill="#4D5AE5"/>
<path d="M9.59961 10.62L7.46619 10.6201V12.7535L9.59961 12.7534V10.62Z" fill="#4D5AE5"/>
<path d="M49.4295 24.5616C48.8546 23.7861 48.0109 23.2869 47.053 23.1524C46.0908 23.0159 45.1414 23.2687 44.3734 23.8564L41.8699 25.7754L41.8688 25.7765L38.0734 28.6106L35.3577 27.529C40.2004 25.3562 43.585 20.5124 43.585 14.8888C43.585 7.24282 37.3396 1.02197 29.6627 1.02197C21.9858 1.02197 15.7405 7.24282 15.7405 14.8888C15.7405 17.6601 16.5692 20.2371 17.9805 22.4057L12.4529 22.3577C12.4497 22.3577 12.4465 22.3577 12.4433 22.3577C12.4262 22.3577 12.4124 22.3662 12.3964 22.3673C12.2908 22.3716 12.1873 22.3929 12.086 22.4292C12.0604 22.4388 12.0338 22.4442 12.0093 22.4558C11.9965 22.4612 11.9837 22.4622 11.9709 22.4686L5.50468 25.6611C5.50356 25.6611 5.50256 25.6611 5.50256 25.6621L1.71575 27.4831C1.67412 27.5013 1.6315 27.5258 1.58987 27.5535C0.0804746 28.5583 -0.433659 30.5317 0.393104 32.1445C0.833611 33.0021 1.5835 33.6336 2.50514 33.9226C2.86039 34.0335 3.22302 34.088 3.58353 34.088C4.16279 34.088 4.73667 33.9461 5.26243 33.6656L8.03798 32.1893L12.566 29.8512L15.2797 29.8352L4.39629 40.6663C4.39529 40.6675 4.39417 40.6675 4.39304 40.6685L1.71563 43.3351C1.08312 43.9645 0.73536 44.7996 0.73536 45.6904C0.73536 46.58 1.08312 47.4173 1.71563 48.0478C2.36526 48.6942 3.21965 49.0185 4.07404 49.0185C4.92955 49.0185 5.78281 48.6942 6.43457 48.0478L9.06287 45.4302L12.5445 42.8306L14.3462 44.6248L10.8229 48.1331C10.8219 48.1342 10.8208 48.1342 10.8196 48.1352L8.14223 50.8019C7.50972 51.4312 7.16196 52.2664 7.16196 53.1571C7.16196 54.0468 7.50972 54.884 8.14223 55.5146C8.79186 56.1609 9.64738 56.4852 10.5018 56.4852C11.3562 56.4852 12.2117 56.1609 12.8623 55.5146L19.8255 48.5812C19.8267 48.5801 19.8267 48.5791 19.8277 48.578L21.8469 46.5779L21.8394 46.5704C21.8522 46.5577 21.8703 46.5533 21.8832 46.5395L32.2151 35.2231L39.1571 36.2109C39.2072 36.2184 39.2573 36.2215 39.3075 36.2215C39.4366 36.2215 39.5613 36.1906 39.6819 36.1448C39.7171 36.132 39.748 36.1149 39.7811 36.0979C39.8195 36.0786 39.86 36.068 39.8964 36.0435L46.3231 31.7768C46.3466 31.7608 46.3593 31.7352 46.3817 31.7182C46.4073 31.6979 46.4393 31.6894 46.4627 31.6669L49.0056 29.285C50.3288 28.0453 50.5111 26.0144 49.4295 24.5616ZM4.26079 31.7829C3.91416 31.9686 3.52053 32.0058 3.14402 31.8864C2.77064 31.7702 2.46776 31.5152 2.29063 31.1707C1.9685 30.5434 2.15513 29.7797 2.71939 29.3669L5.34668 28.1029L6.24482 30.7279L4.26079 31.7829ZM11.255 28.1275L8.15848 29.7275L7.28071 27.161L11.3342 25.1598L11.255 28.1275ZM41.4539 14.8867C41.4539 16.7235 41.0155 18.4559 40.256 20.0056L31.8932 16.2072C31.8057 15.0606 31.2106 14.0568 30.3167 13.4317L33.2447 3.71101C38.0001 5.22366 41.4539 9.65998 41.4539 14.8867ZM17.876 14.8867C17.876 8.41721 23.1646 3.15313 29.6649 3.15313C30.1706 3.15313 30.6655 3.19576 31.1551 3.25763L28.291 12.765C28.2527 12.7639 28.2164 12.7533 28.1769 12.7533C26.1118 12.7533 24.4317 14.4279 24.4317 16.4867C24.4317 18.5454 26.1118 20.2201 28.1769 20.2201C29.5657 20.2201 30.7657 19.4533 31.4132 18.331L39.1381 21.8404C36.9887 24.7332 33.5486 26.6202 29.6648 26.6202C23.1646 26.6202 17.876 21.3562 17.876 14.8867ZM29.7887 16.4867C29.7887 17.3688 29.0654 18.0867 28.1769 18.0867C27.2884 18.0867 26.5651 17.3688 26.5651 16.4867C26.5651 15.6046 27.2884 14.8867 28.1769 14.8867C29.0654 14.8867 29.7887 15.6046 29.7887 16.4867ZM4.92968 46.5352C4.45717 47.0034 3.69228 47.0024 3.2209 46.5363C2.99365 46.309 2.86889 46.0094 2.86889 45.6904C2.86889 45.3725 2.99365 45.0728 3.2209 44.8478L5.14505 42.9309L6.84746 44.6259L4.92968 46.5352ZM11.3574 54.002C10.8849 54.4703 10.119 54.4714 9.6475 54.0032C9.42025 53.7759 9.29549 53.4763 9.29549 53.1573C9.29549 52.8394 9.42025 52.5396 9.6475 52.3146L11.5729 50.3967L13.2764 52.0918L11.3574 54.002ZM18.3208 47.0643C18.3196 47.0653 18.3186 47.0653 18.3175 47.0664L14.7878 50.5865L13.0843 48.8915L16.6107 45.381C16.6107 45.381 16.6107 45.381 16.6107 45.38C16.6119 45.3789 16.6129 45.3789 16.614 45.3779C16.694 45.2979 16.7441 45.2019 16.7932 45.107C16.8071 45.0793 16.8337 45.0558 16.8455 45.027C16.8786 44.9449 16.8839 44.8564 16.8967 44.7699C16.9031 44.7208 16.9245 44.675 16.9245 44.6248C16.9245 44.5533 16.8989 44.484 16.884 44.4135C16.8712 44.3495 16.8712 44.2844 16.8466 44.2226C16.8061 44.1224 16.7367 44.0339 16.6642 43.9474C16.644 43.9239 16.6365 43.894 16.6141 43.8716C16.6141 43.8716 16.6141 43.8716 16.613 43.8716C16.6119 43.8706 16.6119 43.8684 16.6109 43.8674L13.3969 40.6673C13.3628 40.6332 13.3191 40.6193 13.2807 40.5906C13.2242 40.5468 13.1698 40.5063 13.1068 40.4753C13.0461 40.4454 12.9842 40.4273 12.9202 40.4102C12.8519 40.3909 12.7858 40.3761 12.7143 40.3707C12.6492 40.3665 12.5884 40.3728 12.5234 40.3803C12.4519 40.3888 12.3848 40.3985 12.3154 40.4208C12.2482 40.4422 12.1885 40.4752 12.1267 40.5105C12.0872 40.5328 12.0424 40.5403 12.005 40.5681L8.45836 43.2156L6.6567 41.4215L11.4547 36.6491L20.1759 45.2264L18.3208 47.0643ZM31.9584 33.031C31.9275 33.0267 31.8986 33.0385 31.8677 33.0363C31.7898 33.0321 31.7152 33.0375 31.6373 33.0502C31.5766 33.0608 31.519 33.0726 31.4613 33.0928C31.3931 33.1163 31.3312 33.1483 31.2682 33.1867C31.2085 33.223 31.1541 33.2613 31.1018 33.3093C31.0762 33.3317 31.0453 33.3425 31.0218 33.368L21.6253 43.6594L12.9692 35.1461L18.6354 29.5098C19.0525 29.0938 19.0546 28.4185 18.6386 28.0004C18.4285 27.7903 18.1523 27.6868 17.876 27.6879L13.4386 27.7135L13.4941 24.4986L19.7022 24.552C22.2323 27.1397 25.7609 28.7537 29.6649 28.7537C30.5396 28.7537 31.393 28.663 32.2239 28.5083C32.3039 28.5723 32.3827 28.6374 32.4831 28.6779L37.3024 30.5979L37.9637 33.8853L31.9584 33.031ZM40.0406 33.3872L39.4145 30.2714L42.3073 28.1114L44.2007 30.6244L40.0406 33.3872ZM47.5478 27.7253L45.8721 29.2954L44.0097 26.8229L45.6726 25.5482C45.9829 25.3093 46.3745 25.2122 46.7585 25.2623C47.1446 25.3167 47.486 25.5183 47.7185 25.8309C48.1516 26.4144 48.078 27.2282 47.5478 27.7253Z" fill="#2E2F42"/>
<path d="M27.2041 33.3308L22.9182 29.0641C22.5033 28.6492 21.829 28.6492 21.413 29.0641L17.1282 33.3308C16.9277 33.5324 16.8146 33.8033 16.8146 34.087C16.8146 34.3708 16.9266 34.6428 17.1282 34.8433L21.413 39.11C21.621 39.3169 21.8942 39.4204 22.1662 39.4204C22.4382 39.4204 22.7112 39.3169 22.9182 39.11L27.2041 34.8433C27.4046 34.6428 27.5187 34.3708 27.5187 34.087C27.5187 33.8033 27.4056 33.5313 27.2041 33.3308ZM22.1662 36.8487L19.3927 34.087L22.1662 31.3254L24.9406 34.087L22.1662 36.8487Z" fill="#2E2F42"/>
<path d="M34.3285 6.38422L33.8132 8.45575C33.9551 8.491 37.2885 9.35926 37.2885 12.7534H39.4219C39.4218 8.71913 36.0906 6.8226 34.3285 6.38422Z" fill="#2E2F42"/>
<path d="M39.422 14.8867H37.2886V17.0201H39.422V14.8867Z" fill="#2E2F42"/>
</svg>
