<svg width="16" height="16" viewBox="0 0 16 16" fill="none" xmlns="http://www.w3.org/2000/svg">
<path d="M15.996 16L16 15.9994V10.1314C16 7.2607 15.382 5.04937 12.026 5.04937C10.4127 5.04937 9.33 5.9347 8.888 6.77404H8.84134V5.31737H5.65933V15.9994H8.97267V10.71C8.97267 9.31737 9.23667 7.9707 10.9613 7.9707C12.6607 7.9707 12.686 9.56004 12.686 10.7994V16H15.996Z" fill="#F4F4FD"/>
<path d="M0.264001 5.31797H3.58134V16H0.264001V5.31797Z" fill="#F4F4FD"/>
<path d="M1.92133 0C0.860667 0 0 0.860667 0 1.92133C0 2.982 0.860667 3.86067 1.92133 3.86067C2.982 3.86067 3.84267 2.982 3.84267 1.92133C3.842 0.860667 2.98133 0 1.92133 0Z" fill="#F4F4FD"/>
</svg>
